<svg width="289" height="47" viewBox="0 0 289 47" fill="none" xmlns="http://www.w3.org/2000/svg">
<path d="M79.12 19C78.848 19 78.664 18.872 78.568 18.616C78.408 18.184 78.216 17.704 77.992 17.176C77.768 16.648 77.528 16.096 77.272 15.52H70.504C70.28 16.096 70.064 16.648 69.856 17.176C69.664 17.688 69.488 18.16 69.328 18.592C69.28 18.72 69.2 18.824 69.088 18.904C68.976 18.968 68.856 19 68.728 19C68.584 19 68.448 18.944 68.32 18.832C68.208 18.704 68.152 18.552 68.152 18.376C68.152 18.328 68.16 18.264 68.176 18.184C68.208 18.088 68.28 17.904 68.392 17.632C68.664 16.912 68.984 16.088 69.352 15.16C69.736 14.232 70.144 13.264 70.576 12.256C71.008 11.248 71.448 10.232 71.896 9.208C72.344 8.184 72.776 7.216 73.192 6.304C73.304 6.064 73.496 5.944 73.768 5.944H73.864C74.152 5.944 74.344 6.056 74.44 6.28C74.872 7.208 75.328 8.208 75.808 9.28C76.304 10.352 76.784 11.416 77.248 12.472C77.712 13.512 78.136 14.488 78.52 15.4C78.904 16.296 79.216 17.04 79.456 17.632C79.584 17.92 79.656 18.112 79.672 18.208C79.704 18.304 79.72 18.368 79.72 18.4C79.72 18.56 79.656 18.704 79.528 18.832C79.416 18.944 79.28 19 79.12 19ZM76.768 14.32C76.304 13.248 75.816 12.152 75.304 11.032C74.792 9.912 74.296 8.848 73.816 7.84C73.368 8.864 72.896 9.936 72.4 11.056C71.92 12.16 71.456 13.248 71.008 14.32H76.768Z" fill="#282828"/>
<path d="M91.7939 19C91.6339 19 91.4899 18.944 91.3619 18.832C91.2499 18.704 91.1939 18.56 91.1939 18.4V6.76C91.1939 6.584 91.2499 6.44 91.3619 6.328C91.4899 6.216 91.6339 6.16 91.7939 6.16H98.6339C98.8099 6.16 98.9539 6.216 99.0659 6.328C99.1779 6.44 99.2339 6.584 99.2339 6.76C99.2339 6.92 99.1779 7.064 99.0659 7.192C98.9539 7.304 98.8099 7.36 98.6339 7.36H92.3939V11.992H97.4099C97.5859 11.992 97.7299 12.048 97.8419 12.16C97.9539 12.272 98.0099 12.416 98.0099 12.592C98.0099 12.752 97.9539 12.896 97.8419 13.024C97.7299 13.136 97.5859 13.192 97.4099 13.192H92.3939V18.4C92.3939 18.56 92.3379 18.704 92.2259 18.832C92.1139 18.944 91.9699 19 91.7939 19Z" fill="#282828"/>
<path d="M114.656 19C114.496 19 114.352 18.944 114.224 18.832C114.112 18.704 114.056 18.56 114.056 18.4V7.36H109.568C109.408 7.36 109.264 7.304 109.136 7.192C109.024 7.064 108.968 6.92 108.968 6.76C108.968 6.584 109.024 6.44 109.136 6.328C109.264 6.216 109.408 6.16 109.568 6.16H119.84C120.016 6.16 120.16 6.216 120.272 6.328C120.384 6.44 120.44 6.584 120.44 6.76C120.44 6.92 120.384 7.064 120.272 7.192C120.16 7.304 120.016 7.36 119.84 7.36H115.256V18.4C115.256 18.56 115.2 18.704 115.088 18.832C114.976 18.944 114.832 19 114.656 19Z" fill="#282828"/>
<path d="M132.126 19C131.966 19 131.822 18.944 131.694 18.832C131.582 18.704 131.526 18.56 131.526 18.4V6.76C131.526 6.6 131.574 6.464 131.67 6.352C131.782 6.224 131.91 6.16 132.054 6.16H138.774C138.95 6.16 139.094 6.216 139.206 6.328C139.318 6.44 139.374 6.584 139.374 6.76C139.374 6.92 139.318 7.064 139.206 7.192C139.094 7.304 138.95 7.36 138.774 7.36H132.726V11.536H137.742C137.918 11.536 138.062 11.592 138.174 11.704C138.286 11.816 138.342 11.96 138.342 12.136C138.342 12.296 138.286 12.44 138.174 12.568C138.062 12.68 137.918 12.736 137.742 12.736H132.726V17.8H138.822C138.998 17.8 139.142 17.856 139.254 17.968C139.366 18.08 139.422 18.224 139.422 18.4C139.422 18.56 139.366 18.704 139.254 18.832C139.142 18.944 138.998 19 138.822 19H132.126Z" fill="#282828"/>
<path d="M159.925 19C159.749 19 159.597 18.928 159.469 18.784L155.557 14.224H152.341V18.4C152.341 18.56 152.285 18.704 152.173 18.832C152.061 18.944 151.917 19 151.741 19C151.581 19 151.437 18.944 151.309 18.832C151.197 18.704 151.141 18.56 151.141 18.4V6.76C151.141 6.584 151.197 6.44 151.309 6.328C151.437 6.216 151.581 6.16 151.741 6.16H155.269C156.213 6.16 157.021 6.336 157.693 6.688C158.381 7.04 158.909 7.52 159.277 8.128C159.661 8.72 159.853 9.408 159.853 10.192C159.853 11.056 159.613 11.84 159.133 12.544C158.669 13.248 157.941 13.736 156.949 14.008L160.381 18.016C160.477 18.112 160.525 18.24 160.525 18.4C160.525 18.544 160.469 18.68 160.357 18.808C160.245 18.936 160.101 19 159.925 19ZM152.341 7.36V13.024H155.269C156.373 13.024 157.213 12.752 157.789 12.208C158.365 11.648 158.653 10.976 158.653 10.192C158.653 9.344 158.333 8.664 157.693 8.152C157.069 7.624 156.261 7.36 155.269 7.36H152.341Z" fill="#282828"/>
<path d="M177.158 13.12C177.334 13.12 177.478 13.176 177.59 13.288C177.702 13.4 177.758 13.544 177.758 13.72C177.758 13.88 177.702 14.024 177.59 14.152C177.478 14.264 177.334 14.32 177.158 14.32H172.31C172.15 14.32 172.006 14.264 171.878 14.152C171.766 14.024 171.71 13.88 171.71 13.72C171.71 13.544 171.766 13.4 171.878 13.288C172.006 13.176 172.15 13.12 172.31 13.12H177.158Z" fill="#282828"/>
<path d="M199.884 19C199.724 19 199.58 18.944 199.452 18.832C199.34 18.704 199.284 18.56 199.284 18.4V12.76H191.244V18.4C191.244 18.56 191.188 18.704 191.076 18.832C190.964 18.944 190.82 19 190.644 19C190.484 19 190.34 18.944 190.212 18.832C190.1 18.704 190.044 18.56 190.044 18.4V6.76C190.044 6.584 190.1 6.44 190.212 6.328C190.34 6.216 190.484 6.16 190.644 6.16C190.82 6.16 190.964 6.216 191.076 6.328C191.188 6.44 191.244 6.584 191.244 6.76V11.56H199.284V6.76C199.284 6.584 199.34 6.44 199.452 6.328C199.58 6.216 199.724 6.16 199.884 6.16C200.06 6.16 200.204 6.216 200.316 6.328C200.428 6.44 200.484 6.584 200.484 6.76V18.4C200.484 18.56 200.428 18.704 200.316 18.832C200.204 18.944 200.06 19 199.884 19Z" fill="#282828"/>
<path d="M218.48 5.944C219.616 5.944 220.648 6.224 221.576 6.784C222.52 7.344 223.264 8.128 223.808 9.136C224.368 10.128 224.648 11.28 224.648 12.592C224.648 13.84 224.4 14.968 223.904 15.976C223.424 16.968 222.72 17.76 221.792 18.352C220.88 18.928 219.776 19.216 218.48 19.216C217.264 19.216 216.184 18.928 215.24 18.352C214.296 17.76 213.552 16.968 213.008 15.976C212.48 14.984 212.216 13.88 212.216 12.664C212.216 11.32 212.48 10.144 213.008 9.136C213.536 8.128 214.264 7.344 215.192 6.784C216.136 6.224 217.232 5.944 218.48 5.944ZM218.48 7.144C217.472 7.144 216.584 7.384 215.816 7.864C215.064 8.328 214.472 8.976 214.04 9.808C213.624 10.624 213.416 11.576 213.416 12.664C213.416 13.64 213.624 14.536 214.04 15.352C214.472 16.168 215.072 16.816 215.84 17.296C216.608 17.776 217.488 18.016 218.48 18.016C219.536 18.016 220.432 17.776 221.168 17.296C221.92 16.816 222.488 16.168 222.872 15.352C223.256 14.52 223.448 13.6 223.448 12.592C223.448 11.536 223.224 10.6 222.776 9.784C222.344 8.968 221.752 8.328 221 7.864C220.248 7.384 219.408 7.144 218.48 7.144Z" fill="#282828"/>
<path d="M237.288 13.864C237.288 15.192 237.664 16.216 238.416 16.936C239.184 17.656 240.168 18.016 241.368 18.016C242.696 18.016 243.72 17.656 244.44 16.936C245.176 16.2 245.544 15.152 245.544 13.792V6.76C245.544 6.584 245.6 6.44 245.712 6.328C245.84 6.216 245.984 6.16 246.144 6.16C246.32 6.16 246.464 6.216 246.576 6.328C246.688 6.44 246.744 6.584 246.744 6.76V13.792C246.744 15.536 246.272 16.88 245.328 17.824C244.4 18.752 243.08 19.216 241.368 19.216C239.816 19.216 238.544 18.752 237.552 17.824C236.576 16.896 236.088 15.576 236.088 13.864V6.76C236.088 6.584 236.144 6.44 236.256 6.328C236.384 6.216 236.528 6.16 236.688 6.16C236.864 6.16 237.008 6.216 237.12 6.328C237.232 6.44 237.288 6.584 237.288 6.76V13.864Z" fill="#282828"/>
<path d="M267.869 19C267.693 19 267.541 18.928 267.413 18.784L263.501 14.224H260.285V18.4C260.285 18.56 260.229 18.704 260.117 18.832C260.005 18.944 259.861 19 259.685 19C259.525 19 259.381 18.944 259.253 18.832C259.141 18.704 259.085 18.56 259.085 18.4V6.76C259.085 6.584 259.141 6.44 259.253 6.328C259.381 6.216 259.525 6.16 259.685 6.16H263.213C264.157 6.16 264.965 6.336 265.637 6.688C266.325 7.04 266.853 7.52 267.221 8.128C267.605 8.72 267.797 9.408 267.797 10.192C267.797 11.056 267.557 11.84 267.077 12.544C266.613 13.248 265.885 13.736 264.893 14.008L268.325 18.016C268.421 18.112 268.469 18.24 268.469 18.4C268.469 18.544 268.413 18.68 268.301 18.808C268.189 18.936 268.045 19 267.869 19ZM260.285 7.36V13.024H263.213C264.317 13.024 265.157 12.752 265.733 12.208C266.309 11.648 266.597 10.976 266.597 10.192C266.597 9.344 266.277 8.664 265.637 8.152C265.013 7.624 264.205 7.36 263.213 7.36H260.285Z" fill="#282828"/>
<path d="M286.635 7.744C286.251 7.584 285.827 7.456 285.363 7.36C284.915 7.264 284.323 7.216 283.587 7.216C282.771 7.216 282.123 7.424 281.643 7.84C281.163 8.24 280.923 8.696 280.923 9.208C280.923 9.72 281.147 10.184 281.595 10.6C282.043 11.016 282.915 11.376 284.211 11.68C285.363 11.936 286.251 12.264 286.875 12.664C287.515 13.064 287.963 13.52 288.219 14.032C288.475 14.528 288.603 15.08 288.603 15.688C288.603 16.28 288.451 16.848 288.147 17.392C287.859 17.92 287.379 18.36 286.707 18.712C286.051 19.048 285.171 19.216 284.067 19.216C282.499 19.216 281.051 18.848 279.723 18.112C279.515 17.984 279.411 17.808 279.411 17.584C279.411 17.44 279.467 17.304 279.579 17.176C279.691 17.048 279.835 16.984 280.011 16.984C280.107 16.984 280.203 17.008 280.299 17.056C281.435 17.696 282.691 18.016 284.067 18.016C285.155 18.016 285.979 17.792 286.539 17.344C287.115 16.88 287.403 16.328 287.403 15.688C287.403 15.016 287.131 14.456 286.587 14.008C286.059 13.56 285.187 13.184 283.971 12.88C282.835 12.592 281.955 12.264 281.331 11.896C280.723 11.528 280.299 11.112 280.059 10.648C279.835 10.184 279.723 9.672 279.723 9.112C279.723 8.6 279.867 8.112 280.155 7.648C280.459 7.168 280.899 6.776 281.475 6.472C282.051 6.168 282.755 6.016 283.587 6.016C284.467 6.016 285.171 6.088 285.699 6.232C286.243 6.36 286.811 6.544 287.403 6.784C287.659 6.88 287.787 7.064 287.787 7.336C287.787 7.496 287.723 7.64 287.595 7.768C287.483 7.88 287.347 7.936 287.187 7.936C287.155 7.936 287.107 7.928 287.043 7.912C286.979 7.88 286.843 7.824 286.635 7.744Z" fill="#282828"/>
<path d="M69.952 42C69.792 42 69.648 41.944 69.52 41.832C69.408 41.704 69.352 41.56 69.352 41.4V29.76C69.352 29.584 69.408 29.44 69.52 29.328C69.648 29.216 69.792 29.16 69.952 29.16C70.128 29.16 70.272 29.216 70.384 29.328C70.496 29.44 70.552 29.584 70.552 29.76V40.8H76.456C76.632 40.8 76.776 40.856 76.888 40.968C77 41.08 77.056 41.224 77.056 41.4C77.056 41.56 77 41.704 76.888 41.832C76.776 41.944 76.632 42 76.456 42H69.952Z" fill="#282828"/>
<path d="M98.665 42C98.393 42 98.209 41.872 98.113 41.616C97.953 41.184 97.761 40.704 97.537 40.176C97.313 39.648 97.073 39.096 96.817 38.52H90.049C89.825 39.096 89.609 39.648 89.401 40.176C89.209 40.688 89.033 41.16 88.873 41.592C88.825 41.72 88.745 41.824 88.633 41.904C88.521 41.968 88.401 42 88.273 42C88.129 42 87.993 41.944 87.865 41.832C87.753 41.704 87.697 41.552 87.697 41.376C87.697 41.328 87.705 41.264 87.721 41.184C87.753 41.088 87.825 40.904 87.937 40.632C88.209 39.912 88.529 39.088 88.897 38.16C89.281 37.232 89.689 36.264 90.121 35.256C90.553 34.248 90.993 33.232 91.441 32.208C91.889 31.184 92.321 30.216 92.737 29.304C92.849 29.064 93.041 28.944 93.313 28.944H93.409C93.697 28.944 93.889 29.056 93.985 29.28C94.417 30.208 94.873 31.208 95.353 32.28C95.849 33.352 96.329 34.416 96.793 35.472C97.257 36.512 97.681 37.488 98.065 38.4C98.449 39.296 98.761 40.04 99.001 40.632C99.129 40.92 99.201 41.112 99.217 41.208C99.249 41.304 99.265 41.368 99.265 41.4C99.265 41.56 99.201 41.704 99.073 41.832C98.961 41.944 98.825 42 98.665 42ZM96.313 37.32C95.849 36.248 95.361 35.152 94.849 34.032C94.337 32.912 93.841 31.848 93.361 30.84C92.913 31.864 92.441 32.936 91.945 34.056C91.465 35.16 91.001 36.248 90.553 37.32H96.313Z" fill="#282828"/>
<path d="M111.339 42C111.179 42 111.035 41.944 110.907 41.832C110.795 41.704 110.739 41.56 110.739 41.4V29.76C110.739 29.584 110.795 29.44 110.907 29.328C111.035 29.216 111.179 29.16 111.339 29.16H114.675C115.379 29.16 115.971 29.264 116.451 29.472C116.931 29.68 117.323 29.928 117.627 30.216C117.899 30.488 118.115 30.832 118.275 31.248C118.435 31.648 118.515 32.04 118.515 32.424C118.515 32.856 118.435 33.272 118.275 33.672C118.115 34.056 117.899 34.384 117.627 34.656C117.579 34.704 117.523 34.76 117.459 34.824C117.411 34.872 117.347 34.92 117.267 34.968C117.811 35.192 118.259 35.48 118.611 35.832C119.315 36.536 119.667 37.376 119.667 38.352C119.667 38.784 119.587 39.216 119.427 39.648C119.267 40.064 119.019 40.44 118.683 40.776C118.331 41.128 117.867 41.424 117.291 41.664C116.715 41.888 115.971 42 115.059 42H111.339ZM114.891 34.56C115.307 34.528 115.675 34.44 115.995 34.296C116.331 34.136 116.587 33.968 116.763 33.792C117.131 33.456 117.315 33 117.315 32.424C117.315 31.896 117.131 31.448 116.763 31.08C116.555 30.856 116.275 30.68 115.923 30.552C115.587 30.424 115.171 30.36 114.675 30.36H111.939V34.56H114.891ZM111.939 35.76V40.8H115.059C115.763 40.8 116.331 40.72 116.763 40.56C117.211 40.4 117.563 40.184 117.819 39.912C118.251 39.48 118.467 38.96 118.467 38.352C118.467 37.728 118.227 37.176 117.747 36.696C117.123 36.072 116.251 35.76 115.131 35.76H111.939Z" fill="#282828"/>
<path d="M137.867 30.744C137.483 30.584 137.059 30.456 136.595 30.36C136.147 30.264 135.555 30.216 134.819 30.216C134.003 30.216 133.355 30.424 132.875 30.84C132.395 31.24 132.155 31.696 132.155 32.208C132.155 32.72 132.379 33.184 132.827 33.6C133.275 34.016 134.147 34.376 135.443 34.68C136.595 34.936 137.483 35.264 138.107 35.664C138.747 36.064 139.195 36.52 139.451 37.032C139.707 37.528 139.835 38.08 139.835 38.688C139.835 39.28 139.683 39.848 139.379 40.392C139.091 40.92 138.611 41.36 137.939 41.712C137.283 42.048 136.403 42.216 135.299 42.216C133.731 42.216 132.283 41.848 130.955 41.112C130.747 40.984 130.643 40.808 130.643 40.584C130.643 40.44 130.699 40.304 130.811 40.176C130.923 40.048 131.067 39.984 131.243 39.984C131.339 39.984 131.435 40.008 131.531 40.056C132.667 40.696 133.923 41.016 135.299 41.016C136.387 41.016 137.211 40.792 137.771 40.344C138.347 39.88 138.635 39.328 138.635 38.688C138.635 38.016 138.363 37.456 137.819 37.008C137.291 36.56 136.419 36.184 135.203 35.88C134.067 35.592 133.187 35.264 132.563 34.896C131.955 34.528 131.531 34.112 131.291 33.648C131.067 33.184 130.955 32.672 130.955 32.112C130.955 31.6 131.099 31.112 131.387 30.648C131.691 30.168 132.131 29.776 132.707 29.472C133.283 29.168 133.987 29.016 134.819 29.016C135.699 29.016 136.403 29.088 136.931 29.232C137.475 29.36 138.043 29.544 138.635 29.784C138.891 29.88 139.019 30.064 139.019 30.336C139.019 30.496 138.955 30.64 138.827 30.768C138.715 30.88 138.579 30.936 138.419 30.936C138.387 30.936 138.339 30.928 138.275 30.912C138.211 30.88 138.075 30.824 137.867 30.744Z" fill="#282828"/>
<path d="M46.6331 0.59433L26.9794 22.7473L37.208 37.208L22.7473 26.9793L0.59436 46.633L20.248 24.4801L10.0194 10.0194L24.4801 20.248L46.6331 0.59433Z" fill="black"/>
</svg>
